<svg width="113" height="112" viewBox="0 0 113 112" fill="none" xmlns="http://www.w3.org/2000/svg">
	<path fill-rule="evenodd" clip-rule="evenodd" d="M5.5 0C2.73858 0 0.5 2.23858 0.5 5V107C0.5 109.761 2.73858 112 5.5 112H107.5C110.261 112 112.5 109.761 112.5 107V5C112.5 2.23858 110.261 0 107.5 0H5.5ZM106.5 5H6.5C5.94772 5 5.5 5.44772 5.5 6V106C5.5 106.552 5.94772 107 6.5 107H106.5C107.052 107 107.5 106.552 107.5 106V6C107.5 5.44772 107.052 5 106.5 5ZM6.5 3C4.84315 3 3.5 4.34315 3.5 6V106C3.5 107.657 4.84315 109 6.5 109H106.5C108.157 109 109.5 107.657 109.5 106V6C109.5 4.34315 108.157 3 106.5 3H6.5ZM51.96 78L42.5222 62.909L32.64 78H21.9L36.9674 56.1782L22.68 35.64H33.9L42.8069 49.2298L51.54 35.64H62.28L48.4101 56.0079L63 78H51.96ZM76.3041 78.66C73.1441 78.66 70.3241 78.02 67.8441 76.74C65.4041 75.42 63.4841 73.6 62.0841 71.28C60.6841 68.96 59.9841 66.34 59.9841 63.42C59.9841 60.5 60.6641 57.9 62.0241 55.62C63.4241 53.3 65.3041 51.48 67.6641 50.16C70.0241 48.84 72.6841 48.18 75.6441 48.18C78.5241 48.18 81.0641 48.8 83.2641 50.04C85.4641 51.28 87.1841 53 88.4241 55.2C89.7041 57.4 90.3441 59.92 90.3441 62.76C90.3441 63.28 90.3041 63.84 90.2241 64.44C90.1841 65 90.0841 65.66 89.9241 66.42L69.0212 66.4699C69.155 66.9403 69.3226 67.3837 69.5241 67.8C70.1641 69 71.0441 69.94 72.1641 70.62C73.3241 71.26 74.6841 71.58 76.2441 71.58C77.6841 71.58 78.9841 71.34 80.1441 70.86C81.3041 70.34 82.3241 69.58 83.2041 68.58L88.2441 73.62C86.8041 75.3 85.0641 76.56 83.0241 77.4C80.9841 78.24 78.7441 78.66 76.3041 78.66ZM69.4641 58.98C69.2909 59.3511 69.1445 59.7471 69.0248 60.168L81.7708 60.132C81.647 59.5756 81.4848 59.0715 81.2841 58.62C80.8041 57.5 80.0841 56.66 79.1241 56.1C78.2041 55.5 77.0641 55.2 75.7041 55.2C74.2641 55.2 73.0041 55.54 71.9241 56.22C70.8841 56.86 70.0641 57.78 69.4641 58.98Z" fill="black"/>
	</svg>