<svg width="414" height="331" viewBox="0 0 414 331" fill="none" xmlns="http://www.w3.org/2000/svg">
<style>
:root {
	--stroke-color: black;
}
</style>
<g clip-path="url(#clip0_26_1043)">
<path d="M339.937 -0.250029L331 8.68698L322.063 -0.250029L331 -9.18701L339.937 -0.250029ZM339.937 41.125L331 50.062L280.688 -0.250029L289.625 -9.18701L339.937 41.125ZM298.562 82.5L289.625 91.437L248.25 50.062L206.875 91.437L165.5 50.062L144.978 70.915L135.71 61.978L206.875 -9.18701L215.812 -0.250029L174.437 41.125L206.875 73.563L248.25 32.188L298.562 82.5ZM339.937 123.875L289.625 174.187L239.313 123.875L248.25 114.938L289.625 156.313L331 114.938L339.937 123.875ZM133.062 -0.250029L124.125 8.68698L115.188 -0.250029L124.125 -9.18701L133.062 -0.250029ZM339.937 248L331 256.937L289.625 215.562L248.25 256.937L239.313 248L280.688 206.625L206.875 132.812L165.5 174.187L156.563 165.25L197.938 123.875L156.563 82.5L165.5 73.563L206.875 114.938L248.25 73.563L289.625 114.938L322.063 82.5L248.25 8.68698L206.875 50.062L197.938 41.125L248.25 -9.18701L339.937 82.5L289.625 132.812L248.25 91.437L215.812 123.875L289.625 197.688L331 156.313L339.937 165.25L298.562 206.625L339.937 248ZM339.937 206.625L331 215.562L322.063 206.625L331 197.688L339.937 206.625ZM174.437 -0.250029L41.375 132.812L-8.93701 82.5L41.375 32.188L50.312 41.125L8.93699 82.5L41.375 114.938L115.188 41.125L73.813 -0.250029L82.75 -9.18701L124.125 32.188L165.5 -9.18701L174.437 -0.250029ZM8.93699 -0.250029L-1.14441e-05 8.68698L-8.93701 -0.250029L-1.14441e-05 -9.18701L8.93699 -0.250029ZM91.687 41.125L41.375 91.437L32.438 82.5L73.813 41.125L41.375 8.68698L-1.14441e-05 50.062L-8.93701 41.125L41.375 -9.18701L91.687 41.125ZM339.937 330.75L331 339.687L322.063 330.75L331 321.813L339.937 330.75ZM339.937 289.375L289.625 339.687L280.688 330.75L322.063 289.375L289.625 256.937L248.25 298.312L206.875 256.937L174.437 289.375L215.812 330.75L206.875 339.687L165.5 298.312L124.125 339.687L73.813 289.375L115.188 248L73.813 206.625L82.75 197.688L133.062 248L91.687 289.375L124.125 321.813L239.313 206.625L206.875 174.187L165.5 215.562L115.188 165.25L156.563 123.875L124.125 91.437L8.93699 206.625L50.312 248L41.375 256.937L-8.93701 206.625L32.438 165.25L-8.93701 123.875L-1.14441e-05 114.938L41.375 156.313L124.125 73.563L174.437 123.875L133.062 165.25L165.5 197.688L206.875 156.313L257.187 206.625L215.812 248L248.25 280.438L289.625 239.063L339.937 289.375ZM298.562 289.375L248.25 339.687L197.938 289.375L206.875 280.438L248.25 321.813L289.625 280.438L298.562 289.375ZM215.812 206.625L124.125 298.312L115.188 289.375L156.563 248L82.75 174.187L50.312 206.625L91.687 248L50.312 289.375L91.687 330.75L82.75 339.687L41.375 298.312L-1.14441e-05 339.687L-8.93701 330.75L32.438 289.375L-8.93701 248L-1.14441e-05 239.063L41.375 280.438L73.813 248L32.438 206.625L124.125 114.938L133.062 123.875L91.687 165.25L165.5 239.063L206.875 197.688L215.812 206.625ZM8.27499 165.25L-1.14441e-05 173.525L-8.27501 165.25L-1.14441e-05 156.975L8.27499 165.25ZM174.437 330.75L165.5 339.687L156.563 330.75L165.5 321.813L174.437 330.75ZM8.93699 289.375L-1.14441e-05 298.312L-8.93701 289.375L-1.14441e-05 280.438L8.93699 289.375ZM50.312 330.75L41.375 339.687L32.438 330.75L41.375 321.813L50.312 330.75Z" fill="var(--stroke-color)"/>
<path d="M422.687 -0.250029L413.75 8.68698L404.813 -0.250029L413.75 -9.18701L422.687 -0.250029ZM422.687 41.125L413.75 50.062L363.438 -0.250029L372.375 -9.18701L422.687 41.125ZM422.687 82.5L413.75 91.437L322.063 -0.250029L331 -9.18701L422.687 82.5ZM422.687 123.875L413.75 132.812L322.063 41.125L331 32.188L422.687 123.875ZM422.687 165.25L413.75 174.187L322.063 82.5L331 73.563L422.687 165.25ZM422.687 206.625L413.75 215.562L322.063 123.875L331 114.938L422.687 206.625ZM360.79 227.147L351.853 236.415L322.063 206.625L331 197.688L360.79 227.147ZM422.687 248L331 339.687L322.063 330.75L404.813 248L322.063 165.25L331 156.313L422.687 248ZM339.937 248L331 256.937L322.063 248L331 239.063L339.937 248ZM381.312 248L331 298.312L322.063 289.375L372.375 239.063L381.312 248ZM422.687 289.375L372.375 339.687L363.438 330.75L413.75 280.438L422.687 289.375ZM422.687 330.75L413.75 339.687L404.813 330.75L413.75 321.813L422.687 330.75Z" fill="var(--stroke-color)"/>
</g>
<defs>
<clipPath id="clip0_26_1043">
<rect width="414" height="331"/>
</clipPath>
</defs>
</svg>
